<svg width="57" height="53" viewBox="0 0 57 53" fill="none" xmlns="http://www.w3.org/2000/svg">
<path d="M29.8889 11.6211C29.3303 11.6211 28.8479 11.8158 28.4416 12.2051C28.0523 12.5944 27.8576 13.0684 27.8576 13.627V27.7949C27.8576 28.0996 27.9084 28.3874 28.01 28.6582C28.1116 28.9121 28.2639 29.1745 28.467 29.4453L34.7385 37.7227C35.1617 38.2643 35.6441 38.5859 36.1858 38.6875C36.7444 38.7721 37.2776 38.6367 37.7854 38.2812C38.2593 37.9596 38.5132 37.528 38.5471 36.9863C38.5979 36.4277 38.4286 35.8945 38.0393 35.3867L29.5842 23.9863L31.8948 31.0957V13.627C31.8948 13.0684 31.7001 12.5944 31.3108 12.2051C30.9214 11.8158 30.4475 11.6211 29.8889 11.6211ZM30.8537 52.3984C34.3915 52.3984 37.7177 51.7214 40.8323 50.3672C43.9638 49.013 46.7229 47.1426 49.1096 44.7559C51.4963 42.3691 53.3668 39.6185 54.7209 36.5039C56.0751 33.3724 56.7522 30.0378 56.7522 26.5C56.7522 22.9622 56.0751 19.6361 54.7209 16.5215C53.3668 13.39 51.4963 10.6309 49.1096 8.24406C46.7229 5.85736 43.9638 3.98696 40.8323 2.63276C37.7177 1.27856 34.3915 0.601562 30.8537 0.601562C27.316 0.601562 23.9813 1.27856 20.8498 2.63276C17.7352 3.98696 14.9846 5.85736 12.5979 8.24406C10.2112 10.6139 8.3407 13.3646 6.9866 16.4961C5.6324 19.6107 4.9553 22.9368 4.9553 26.4746H9.2717C9.2717 23.4785 9.8218 20.6771 10.9221 18.0703C12.0393 15.4635 13.5881 13.1784 15.5686 11.2148C17.5491 9.25126 19.8427 7.71936 22.4494 6.61906C25.0562 5.50196 27.8576 4.94336 30.8537 4.94336C33.8498 4.94336 36.6513 5.50196 39.258 6.61906C41.8648 7.71936 44.15 9.25976 46.1135 11.2402C48.094 13.2038 49.6428 15.4889 50.76 18.0957C51.8772 20.7025 52.4358 23.5039 52.4358 26.5C52.4358 29.4961 51.8772 32.306 50.76 34.9297C49.6428 37.5365 48.094 39.8301 46.1135 41.8105C44.15 43.7741 41.8648 45.3145 39.258 46.4316C36.6513 47.5488 33.8498 48.099 30.8537 48.082C28.4332 48.0651 26.1395 47.6842 23.9729 46.9395C21.8062 46.2116 19.8173 45.179 18.0061 43.8418C16.2118 42.5046 14.6714 40.9388 13.385 39.1445C12.9957 38.6198 12.5217 38.2897 11.9631 38.1543C11.4214 38.002 10.8798 38.0866 10.3381 38.4082C9.8303 38.7298 9.5171 39.1953 9.3987 39.8047C9.2971 40.4141 9.4664 40.998 9.9065 41.5566C11.5145 43.7064 13.4019 45.5938 15.5686 47.2188C17.7352 48.8607 20.1135 50.1302 22.7033 51.0273C25.2932 51.9414 28.01 52.3984 30.8537 52.3984ZM1.8323 21.5996C1.2229 21.5996 0.765801 21.7266 0.461201 21.9805C0.156501 22.2174 0.0125999 22.5391 0.0294999 22.9453C0.0463999 23.3516 0.2157 23.7917 0.5373 24.2656L6.2248 32.3398C6.648 32.9323 7.1304 33.2285 7.6721 33.2285C8.2138 33.2116 8.6877 32.9154 9.094 32.3398L14.7815 24.2402C15.1031 23.7663 15.2639 23.3346 15.2639 22.9453C15.2808 22.5391 15.1369 22.2174 14.8323 21.9805C14.5276 21.7266 14.079 21.5996 13.4866 21.5996H1.8323Z" fill="black"/>
</svg>
