<svg width="59" height="59" viewBox="0 0 59 59" fill="none" xmlns="http://www.w3.org/2000/svg">
<path d="M29.3773 0.87207C28.9711 0.87207 28.6156 1.02437 28.3109 1.32907C28.0231 1.61687 27.8793 1.97227 27.8793 2.39547V11.8154C27.8793 12.2555 28.0231 12.6195 28.3109 12.9072C28.6156 13.195 28.9711 13.3389 29.3773 13.3389C29.8174 13.3389 30.1813 13.195 30.4691 12.9072C30.7569 12.6195 30.9007 12.2555 30.9007 11.8154V2.39547C30.9007 1.97227 30.7569 1.61687 30.4691 1.32907C30.1813 1.02437 29.8174 0.87207 29.3773 0.87207ZM36.8929 1.63377C36.4867 1.49837 36.1058 1.52377 35.7504 1.70997C35.3949 1.89617 35.1579 2.22617 35.0394 2.70017L34.1761 5.82317C34.0576 6.22947 34.1 6.61877 34.3031 6.99117C34.5062 7.34667 34.8109 7.57517 35.2171 7.67677C35.6234 7.77827 36.0043 7.73597 36.3597 7.54977C36.7321 7.34667 36.9691 7.03347 37.0707 6.61037L37.9086 3.48727C38.027 3.04717 37.9847 2.65787 37.7816 2.31927C37.5954 1.98077 37.2992 1.75227 36.8929 1.63377ZM43.723 4.70607C43.3506 4.50287 42.9613 4.45207 42.555 4.55367C42.1657 4.65527 41.861 4.88377 41.641 5.23927L36.9437 13.4404C36.7067 13.8128 36.6475 14.2021 36.766 14.6084C36.8845 14.9977 37.1214 15.2939 37.4769 15.4971C37.8324 15.7171 38.2132 15.7764 38.6195 15.6748C39.0257 15.5563 39.3304 15.3109 39.5336 14.9385L44.2562 6.76267C44.4593 6.39027 44.5101 6.00937 44.4086 5.62007C44.307 5.23077 44.0785 4.92607 43.723 4.70607ZM49.8421 9.09857C49.5375 8.79387 49.1735 8.65007 48.7504 8.66697C48.3441 8.66697 47.9971 8.81087 47.7093 9.09857L45.3988 11.3838C45.0941 11.7054 44.9333 12.0693 44.9164 12.4756C44.9164 12.8649 45.0772 13.2119 45.3988 13.5166C45.7035 13.8382 46.0589 13.999 46.4652 13.999C46.8714 13.999 47.2185 13.8467 47.5062 13.542L49.766 11.2568C50.0876 10.9183 50.2569 10.5544 50.2738 10.165C50.2907 9.75877 50.1468 9.40327 49.8421 9.09857ZM54.2093 15.1924C53.9893 14.82 53.6761 14.583 53.2699 14.4814C52.8806 14.3799 52.4997 14.4307 52.1273 14.6338L43.9515 19.3564C43.5791 19.5596 43.3337 19.8643 43.2152 20.2705C43.1136 20.6768 43.1729 21.0661 43.3929 21.4385C43.5961 21.7939 43.8923 22.0309 44.2816 22.1494C44.6879 22.251 45.0772 22.1917 45.4496 21.9717L53.6507 17.249C54.0062 17.029 54.2347 16.7243 54.3363 16.335C54.4548 15.9456 54.4125 15.5648 54.2093 15.1924ZM57.307 22.0479C57.2054 21.6247 56.9685 21.3115 56.5961 21.1084C56.2237 20.9053 55.8513 20.8545 55.4789 20.9561L52.305 21.8193C51.8988 21.9378 51.5941 22.1748 51.391 22.5303C51.1879 22.8857 51.154 23.3005 51.2894 23.7744C51.391 24.096 51.6026 24.3669 51.9242 24.5869C52.2627 24.807 52.6605 24.8577 53.1175 24.7393L56.1898 23.876C56.6299 23.7575 56.9515 23.5205 57.1546 23.165C57.3578 22.8096 57.4086 22.4372 57.307 22.0479ZM58.0179 29.4873C58.0179 29.0641 57.8656 28.7087 57.5609 28.4209C57.2731 28.1331 56.9177 27.9893 56.4945 27.9893H47.0746C46.6345 27.9893 46.2705 28.1331 45.9828 28.4209C45.695 28.7087 45.5511 29.0641 45.5511 29.4873C45.5511 29.9105 45.695 30.2744 45.9828 30.5791C46.2705 30.8669 46.6345 31.0107 47.0746 31.0107H56.4945C56.9177 31.0107 57.2731 30.8669 57.5609 30.5791C57.8656 30.2744 58.0179 29.9105 58.0179 29.4873ZM57.307 37.0537C57.4255 36.6305 57.3916 36.2412 57.2054 35.8857C57.0192 35.5303 56.7061 35.2848 56.266 35.1494L53.1175 34.2607C52.6944 34.1592 52.305 34.21 51.9496 34.4131C51.5941 34.6162 51.3656 34.9209 51.264 35.3271C51.1625 35.7503 51.2048 36.1481 51.391 36.5205C51.5941 36.8929 51.8988 37.1299 52.305 37.2314L55.4281 38.0439C55.8682 38.1455 56.2575 38.1032 56.5961 37.917C56.9515 37.7139 57.1885 37.4261 57.307 37.0537ZM54.1839 43.8076C54.3871 43.4521 54.4379 43.0713 54.3363 42.665C54.2347 42.2588 54.0062 41.9541 53.6507 41.751L45.4496 37.0283C45.0772 36.8083 44.6879 36.7575 44.2816 36.876C43.8923 36.9775 43.5961 37.2061 43.3929 37.5615C43.1729 37.9339 43.1136 38.3232 43.2152 38.7295C43.3337 39.1188 43.5791 39.4235 43.9515 39.6436L52.1273 44.3662C52.4997 44.5693 52.8806 44.6201 53.2699 44.5186C53.6592 44.4001 53.9639 44.1631 54.1839 43.8076ZM49.8168 49.9521C50.1384 49.6305 50.2907 49.2581 50.2738 48.835C50.2738 48.4118 50.1384 48.0648 49.8675 47.7939L47.5316 45.5088C47.2269 45.221 46.863 45.0687 46.4398 45.0518C46.0336 45.0348 45.6696 45.1872 45.348 45.5088C45.0602 45.8304 44.9164 46.1859 44.9164 46.5752C44.9333 46.9645 45.0941 47.3115 45.3988 47.6162L47.6839 49.9014C48.0056 50.223 48.361 50.3838 48.7504 50.3838C49.1566 50.4007 49.5121 50.2568 49.8168 49.9521ZM43.6976 54.2939C44.07 54.0908 44.307 53.7861 44.4086 53.3799C44.5101 52.9736 44.4593 52.5928 44.2562 52.2373L39.5336 44.0615C39.3304 43.6722 39.0257 43.4268 38.6195 43.3252C38.2132 43.2236 37.8324 43.2744 37.4769 43.4775C37.1214 43.6976 36.8845 44.0107 36.766 44.417C36.6475 44.8063 36.7067 45.1872 36.9437 45.5596L41.641 53.7354C41.861 54.1077 42.1657 54.3447 42.555 54.4463C42.9444 54.5479 43.3252 54.4971 43.6976 54.2939ZM36.8929 57.4424C37.3669 57.3239 37.68 57.0785 37.8324 56.7061C38.0017 56.3506 38.0355 55.9782 37.9339 55.5889L37.1214 52.3896C37.0199 51.9834 36.7744 51.6787 36.3851 51.4756C36.0127 51.2725 35.6234 51.2301 35.2171 51.3486C34.777 51.4671 34.4639 51.7041 34.2777 52.0596C34.0915 52.432 34.0576 52.8128 34.1761 53.2021L35.0902 56.2998C35.2087 56.723 35.4203 57.0361 35.725 57.2393C36.0466 57.4593 36.4359 57.527 36.8929 57.4424ZM29.3773 58.1279C29.8174 58.1279 30.1813 57.9756 30.4691 57.6709C30.7569 57.3831 30.9007 57.0277 30.9007 56.6045V47.1846C30.9007 46.7445 30.7569 46.3805 30.4691 46.0928C30.1813 45.805 29.8174 45.6611 29.3773 45.6611C28.9711 45.6611 28.6156 45.805 28.3109 46.0928C28.0231 46.3805 27.8793 46.7445 27.8793 47.1846V56.6045C27.8793 57.0277 28.0231 57.3831 28.3109 57.6709C28.6156 57.9756 28.9711 58.1279 29.3773 58.1279ZM21.7601 57.417C22.2341 57.5693 22.6573 57.527 23.0296 57.29C23.402 57.07 23.639 56.7653 23.7406 56.376L24.6039 53.2529C24.7224 52.8467 24.68 52.4574 24.4769 52.085C24.2738 51.7295 23.9691 51.501 23.5629 51.3994C23.1566 51.2979 22.7673 51.3402 22.3949 51.5264C22.0394 51.7295 21.8109 52.0426 21.7093 52.4658L20.8714 55.5889C20.753 56.029 20.7614 56.4098 20.8968 56.7314C21.0492 57.0531 21.3369 57.2816 21.7601 57.417ZM15.0824 54.2939C15.4379 54.4971 15.8187 54.5479 16.225 54.4463C16.6312 54.3447 16.9359 54.1077 17.139 53.7354L21.8617 45.5596C22.0817 45.1872 22.1325 44.8063 22.014 44.417C21.9125 44.0107 21.6839 43.6976 21.3285 43.4775C20.9561 43.2744 20.5668 43.2236 20.1605 43.3252C19.7712 43.4268 19.4665 43.6722 19.2464 44.0615L14.5492 52.2373C14.3291 52.5928 14.2699 52.9652 14.3714 53.3545C14.4899 53.7607 14.7269 54.0739 15.0824 54.2939ZM8.96322 49.9268C9.28492 50.2314 9.64032 50.3838 10.0296 50.3838C10.4359 50.4007 10.7829 50.2653 11.0707 49.9775L13.3812 47.6924C13.6859 47.3538 13.8467 46.9899 13.8636 46.6006C13.8806 46.2113 13.7282 45.8643 13.4066 45.5596C13.1188 45.2549 12.7634 45.1025 12.3402 45.1025C11.917 45.0856 11.5615 45.2295 11.2738 45.5342L9.01402 47.8193C8.69242 48.1579 8.52312 48.5133 8.50622 48.8857C8.50622 49.2751 8.65862 49.6221 8.96322 49.9268ZM4.59612 43.8076C4.79922 44.1631 5.10392 44.4001 5.51012 44.5186C5.91642 44.6201 6.29721 44.5693 6.65271 44.3662L14.8285 39.6436C15.2178 39.4235 15.4632 39.1188 15.5648 38.7295C15.6664 38.3232 15.6156 37.9424 15.4125 37.5869C15.1924 37.2145 14.8793 36.9775 14.473 36.876C14.0837 36.7575 13.7028 36.8083 13.3304 37.0283L5.15462 41.751C4.78232 41.9541 4.54532 42.2588 4.44372 42.665C4.34212 43.0544 4.39292 43.4352 4.59612 43.8076ZM1.47302 36.9775C1.57462 37.3838 1.81152 37.6885 2.18392 37.8916C2.55632 38.0778 2.93722 38.1286 3.32652 38.0439L6.47501 37.2568C6.89811 37.1383 7.21132 36.9098 7.41442 36.5713C7.61752 36.2158 7.65992 35.8265 7.54142 35.4033C7.42291 34.9971 7.18591 34.6924 6.83041 34.4893C6.47501 34.2692 6.08561 34.21 5.66251 34.3115L2.61562 35.1494C2.14162 35.2848 1.80312 35.5303 1.60002 35.8857C1.41382 36.2243 1.37142 36.5882 1.47302 36.9775ZM0.762115 29.4873C0.762115 29.9105 0.906016 30.2744 1.19372 30.5791C1.49842 30.8669 1.86232 31.0107 2.28552 31.0107H11.7054C12.1455 31.0107 12.5095 30.8669 12.7972 30.5791C13.085 30.2744 13.2289 29.9105 13.2289 29.4873C13.2289 29.0641 13.085 28.7087 12.7972 28.4209C12.5095 28.1331 12.1455 27.9893 11.7054 27.9893H2.28552C1.86232 27.9893 1.49842 28.1331 1.19372 28.4209C0.906016 28.7087 0.762115 29.0641 0.762115 29.4873ZM1.44762 22.0225C1.36302 22.4287 1.43072 22.8096 1.65072 23.165C1.87082 23.5205 2.16702 23.7575 2.53942 23.876L5.66251 24.7646C6.08561 24.8662 6.47501 24.8154 6.83041 24.6123C7.20281 24.4092 7.43131 24.096 7.51602 23.6729C7.61752 23.2666 7.57522 22.8773 7.38902 22.5049C7.20282 22.1325 6.89811 21.8955 6.47501 21.7939L3.35192 21.0068C2.89492 20.8883 2.48022 20.9307 2.10782 21.1338C1.75232 21.3369 1.53232 21.6331 1.44762 22.0225ZM4.62142 15.167C4.40142 15.5394 4.34212 15.9287 4.44372 16.335C4.54532 16.7243 4.78232 17.029 5.15462 17.249L13.3304 21.9717C13.7028 22.1917 14.0837 22.251 14.473 22.1494C14.8793 22.0309 15.1924 21.7939 15.4125 21.4385C15.6156 21.0661 15.6664 20.6768 15.5648 20.2705C15.4632 19.8643 15.2178 19.5596 14.8285 19.3564L6.65271 14.6338C6.29721 14.4307 5.91642 14.3799 5.51012 14.4814C5.12082 14.583 4.82462 14.8115 4.62142 15.167ZM8.93791 9.07317C8.63321 9.36097 8.48932 9.71647 8.50622 10.1396C8.54011 10.5628 8.69242 10.9183 8.96322 11.2061L11.223 13.4912C11.5446 13.8128 11.9001 13.9821 12.2894 13.999C12.6957 13.999 13.0596 13.8382 13.3812 13.5166C13.669 13.2288 13.8129 12.8818 13.8129 12.4756C13.8298 12.0524 13.6774 11.68 13.3558 11.3584L11.0961 9.09857C10.7744 8.76007 10.4105 8.59927 10.0043 8.61617C9.61492 8.61617 9.25951 8.76857 8.93791 9.07317ZM15.0824 4.68067C14.7269 4.90067 14.4899 5.21387 14.3714 5.62007C14.2699 6.00937 14.3291 6.39027 14.5492 6.76267L19.2464 14.9385C19.4665 15.3109 19.7712 15.5563 20.1605 15.6748C20.5668 15.7764 20.9476 15.7171 21.3031 15.4971C21.6755 15.2939 21.9125 14.9977 22.014 14.6084C22.1325 14.2021 22.0817 13.8128 21.8617 13.4404L17.139 5.23927C16.919 4.88377 16.6143 4.65527 16.225 4.55367C15.8356 4.43517 15.4548 4.47747 15.0824 4.68067ZM21.8871 1.55757C21.4639 1.64227 21.1507 1.86227 20.9476 2.21777C20.7614 2.55627 20.7276 2.96257 20.8461 3.43647L21.6839 6.63567C21.7855 7.02507 22.014 7.31277 22.3695 7.49897C22.7419 7.68517 23.1651 7.71057 23.639 7.57517C24.0961 7.43977 24.4007 7.21127 24.5531 6.88957C24.7224 6.55107 24.7477 6.17867 24.6293 5.77247L23.7406 2.70017C23.6221 2.24317 23.3851 1.92147 23.0296 1.73537C22.6911 1.53217 22.3102 1.47297 21.8871 1.55757Z" fill="black"/>
</svg>
