<svg width="37" height="36" viewBox="0 0 37 36" fill="none" xmlns="http://www.w3.org/2000/svg">
<g clip-path="url(#clip0_1_140)">
<path d="M10.426 36C4.7452 36 0.139999 31.3948 0.139999 25.714V10.286C0.139999 4.6052 4.7452 0 10.426 0H25.854C31.5348 0 36.14 4.6052 36.14 10.286V25.714C36.14 31.3948 31.5348 36 25.854 36H10.426Z" fill="black"/>
<path d="M12.695 16.159C12.673 15.905 12.861 15.683 13.115 15.667C14.009 15.608 16.075 15.491 18.14 15.491C20.206 15.491 22.271 15.608 23.165 15.667C23.419 15.683 23.608 15.905 23.586 16.159L22.927 23.738C22.805 25.14 21.642 26.221 20.234 26.223C19.624 26.224 18.919 26.224 18.14 26.22C17.393 26.216 16.714 26.216 16.12 26.217C14.682 26.219 13.473 25.124 13.348 23.691L12.695 16.159Z" fill="white"/>
<path d="M13.0691 10.321C12.4911 10.489 12.1251 10.992 11.9951 11.579L11.4151 14.206C11.3491 14.505 11.5871 14.784 11.8931 14.766C12.9911 14.701 15.4411 14.576 18.1401 14.576C20.8391 14.576 23.2891 14.701 24.3881 14.766C24.6931 14.784 24.9311 14.505 24.8651 14.206L24.2861 11.579C24.1561 10.992 23.7891 10.489 23.2111 10.321C22.3531 10.072 20.7811 9.776 18.1401 9.776C15.5001 9.776 13.9271 10.072 13.0691 10.321Z" fill="white"/>
</g>
<defs>
<clipPath id="clip0_1_140">
<rect width="36" height="36" fill="white" transform="translate(0.139999)"/>
</clipPath>
</defs>
</svg>
