<svg width="61" height="47" viewBox="0 0 61 47" fill="none" xmlns="http://www.w3.org/2000/svg">
<path d="M3.56124 8.68463V12.2646H57.9988V8.68463H3.56124ZM8.81714 46.8721H52.7429C55.4174 46.8721 57.4148 46.2119 58.7351 44.8916C60.0554 43.5882 60.7155 41.6331 60.7155 39.0264V7.99903C60.7155 5.39233 60.0554 3.42873 58.7351 2.10843C57.4148 0.788131 55.4174 0.12793 52.7429 0.12793H8.81714C6.15964 0.12793 4.16224 0.788131 2.82494 2.10843C1.50464 3.41183 0.844543 5.37533 0.844543 7.99903V39.0264C0.844543 41.6331 1.50464 43.5882 2.82494 44.8916C4.16224 46.2119 6.15964 46.8721 8.81714 46.8721ZM8.86794 42.7842C7.59844 42.7842 6.62514 42.4541 5.94804 41.7939C5.27094 41.1169 4.93234 40.1182 4.93234 38.7979V8.22753C4.93234 6.90723 5.27094 5.90853 5.94804 5.23143C6.62514 4.55443 7.59844 4.21583 8.86794 4.21583H52.6921C53.9447 4.21583 54.9096 4.55443 55.5866 5.23143C56.2807 5.90853 56.6277 6.90723 56.6277 8.22753V38.7979C56.6277 40.1182 56.2807 41.1169 55.5866 41.7939C54.9096 42.4541 53.9447 42.7842 52.6921 42.7842H8.86794ZM30.8054 37.3506C31.3471 37.3506 31.821 37.1559 32.2273 36.7666C32.6335 36.3773 32.8366 35.9118 32.8366 35.3701V26.9912L32.6589 22.7256L34.8425 25.0107L38.1433 28.3115C38.3464 28.5146 38.5665 28.667 38.8034 28.7686C39.0404 28.8701 39.2774 28.9209 39.5144 28.9209C40.056 28.9209 40.5046 28.7516 40.8601 28.4131C41.2155 28.0745 41.3933 27.6429 41.3933 27.1182C41.3933 26.8304 41.334 26.5765 41.2155 26.3564C41.114 26.1195 40.9532 25.9079 40.7331 25.7217L32.278 17.8506C31.7702 17.3936 31.2793 17.165 30.8054 17.165C30.3314 17.165 29.8405 17.3936 29.3327 17.8506L20.8777 25.7217C20.6745 25.9079 20.5137 26.1195 20.3952 26.3564C20.2767 26.5765 20.2175 26.8304 20.2175 27.1182C20.2175 27.6429 20.3868 28.0745 20.7253 28.4131C21.0808 28.7516 21.5293 28.9209 22.071 28.9209C22.5958 28.9209 23.0612 28.7178 23.4675 28.3115L26.7683 25.0107L28.9519 22.7256L28.7995 26.9912V35.3701C28.7995 35.9118 28.9942 36.3773 29.3835 36.7666C29.7898 37.1559 30.2637 37.3506 30.8054 37.3506Z" fill="black"/>
</svg>
