<svg width="31" height="32" viewBox="0 0 31 32" fill="none" xmlns="http://www.w3.org/2000/svg">
<path fill-rule="evenodd" clip-rule="evenodd" d="M31 16C31 24.5604 24.0604 31.5 15.5 31.5C6.93961 31.5 0 24.5604 0 16C0 7.43961 6.93961 0.5 15.5 0.5C24.0604 0.5 31 7.43961 31 16Z" fill="#FF6154"/>
<path fill-rule="evenodd" clip-rule="evenodd" d="M17.4329 16.4559L13.0929 16.456V11.806H17.4329C18.7019 11.806 19.7306 12.8468 19.7306 14.1309C19.7306 15.4149 18.7019 16.4559 17.4329 16.4559ZM17.4329 8.70587H10.0294V24.2059H13.0929V19.556H17.4329C20.3938 19.556 22.7941 17.127 22.7941 14.1309C22.7941 11.1347 20.3938 8.70587 17.4329 8.70587Z" fill="white"/>
</svg>
