<svg width="43" height="55" viewBox="0 0 43 55" fill="none" xmlns="http://www.w3.org/2000/svg">
<path d="M11.683 20.7715H15.9741C16.7358 20.7715 17.2097 20.416 17.3959 19.7052L19.5795 10.8946H17.3705L20.5698 26.4082C20.6544 26.8822 20.8745 27.2038 21.2299 27.3731C21.6023 27.5254 21.9747 27.5254 22.3471 27.3731C22.7195 27.2208 22.9819 26.916 23.1342 26.459L26.7397 13.9923L24.683 13.9415L26.0288 19.6289C26.198 20.3906 26.672 20.7715 27.4506 20.7715H31.437C31.8093 20.7715 32.1225 20.6445 32.3764 20.3906C32.6303 20.1367 32.7573 19.8321 32.7573 19.4767C32.7573 19.1042 32.6303 18.791 32.3764 18.5371C32.1225 18.2832 31.8093 18.1562 31.437 18.1562H27.7045L28.3647 18.6642L26.9174 13.0527C26.7989 12.6126 26.562 12.325 26.2065 12.1896C25.851 12.0372 25.4955 12.0456 25.1401 12.2148C24.7846 12.3672 24.5307 12.6635 24.3784 13.1035L20.6967 25.1387H22.8295L19.6811 9.62505C19.5795 9.16805 19.351 8.86335 18.9955 8.71095C18.6401 8.54175 18.2761 8.53325 17.9038 8.68555C17.5314 8.83795 17.2944 9.14265 17.1928 9.59965L14.9077 18.9434L15.6694 18.1562H11.683C11.3107 18.1562 10.9975 18.2917 10.7436 18.5625C10.4897 18.8165 10.3627 19.1212 10.3627 19.4767C10.3627 19.8321 10.4897 20.1367 10.7436 20.3906C10.9975 20.6445 11.3107 20.7715 11.683 20.7715ZM11.937 34.2794H31.2084C31.6485 34.2794 32.0125 34.127 32.3002 33.8223C32.6049 33.5177 32.7573 33.1453 32.7573 32.7052C32.7573 32.2651 32.6049 31.9011 32.3002 31.6133C32.0125 31.3086 31.6485 31.1562 31.2084 31.1562H11.937C11.4799 31.1562 11.0991 31.3086 10.7944 31.6133C10.5066 31.9011 10.3627 32.2651 10.3627 32.7052C10.3627 33.1453 10.5066 33.5177 10.7944 33.8223C11.0991 34.127 11.4799 34.2794 11.937 34.2794ZM11.937 43.1406H21.0522C21.5092 43.1406 21.8816 42.9967 22.1694 42.709C22.4741 42.4044 22.6264 42.032 22.6264 41.5919C22.6264 41.1517 22.4741 40.7794 22.1694 40.4747C21.8816 40.17 21.5092 40.0177 21.0522 40.0177H11.937C11.4799 40.0177 11.0991 40.17 10.7944 40.4747C10.5066 40.7794 10.3627 41.1517 10.3627 41.5919C10.3627 42.032 10.5066 42.4044 10.7944 42.709C11.0991 42.9967 11.4799 43.1406 11.937 43.1406ZM0.206543 46.7715C0.206543 49.4291 0.858244 51.418 2.16164 52.7383C3.48194 54.0586 5.45394 54.7189 8.07764 54.7189H35.0424C37.6661 54.7189 39.6297 54.0586 40.933 52.7383C42.2534 51.418 42.9135 49.4291 42.9135 46.7715V8.25395C42.9135 5.61335 42.2534 3.62435 40.933 2.28715C39.6297 0.949949 37.6661 0.28125 35.0424 0.28125H8.07764C5.45394 0.28125 3.48194 0.949949 2.16164 2.28715C0.858244 3.62435 0.206543 5.61335 0.206543 8.25395V46.7715ZM4.29444 46.6954V8.33015C4.29444 7.06055 4.62454 6.08725 5.28464 5.41025C5.96174 4.71615 6.96044 4.36915 8.28074 4.36915H34.8393C36.1596 4.36915 37.1498 4.71615 37.81 5.41025C38.4871 6.08725 38.8256 7.06055 38.8256 8.33015V46.6954C38.8256 47.9649 38.4871 48.9383 37.81 49.6152C37.1498 50.2924 36.1596 50.631 34.8393 50.631H8.28074C6.96044 50.631 5.96174 50.2924 5.28464 49.6152C4.62454 48.9383 4.29444 47.9649 4.29444 46.6954Z" fill="black"/>
</svg>
