<svg width="67" height="31" viewBox="0 0 67 31" fill="none" xmlns="http://www.w3.org/2000/svg">
<path d="M0.463379 15.5C0.463379 18.5638 1.05583 21.2298 2.24072 23.498C3.44255 25.7663 5.10986 27.5267 7.24266 28.7793C9.39246 30.015 11.8723 30.6328 14.6822 30.6328C16.9843 30.6328 19.134 30.1419 21.1314 29.1602C23.1288 28.1615 25.177 26.6549 27.2759 24.6406L33.5728 18.5977L39.8443 24.6406C41.9432 26.6549 43.9914 28.1615 45.9888 29.1602C48.0031 30.1419 50.1529 30.6328 52.438 30.6328C55.2479 30.6328 57.7193 30.015 59.8521 28.7793C62.0018 27.5267 63.6691 25.7663 64.854 23.498C66.0559 21.2298 66.6568 18.5638 66.6568 15.5C66.6568 12.4362 66.0559 9.77019 64.854 7.50199C63.6691 5.23369 62.0018 3.48179 59.8521 2.24609C57.7193 0.993486 55.2479 0.367188 52.438 0.367188C50.1529 0.367188 48.0031 0.866487 45.9888 1.86519C43.9914 2.84699 41.9432 4.34509 39.8443 6.35939L33.5728 12.4023L27.2759 6.35939C25.177 4.34509 23.1288 2.84699 21.1314 1.86519C19.134 0.866487 16.9843 0.367188 14.6822 0.367188C11.8723 0.367188 9.39246 0.993486 7.24266 2.24609C5.10986 3.48179 3.44255 5.23369 2.24072 7.50199C1.05583 9.77019 0.463379 12.4362 0.463379 15.5ZM5.05906 15.5C5.05906 13.3503 5.46536 11.4883 6.27786 9.91409C7.09036 8.33979 8.21596 7.12109 9.65476 6.25779C11.1106 5.39449 12.7863 4.96289 14.6822 4.96289C16.3072 4.96289 17.8645 5.36069 19.354 6.15619C20.8436 6.93489 22.4094 8.08589 24.0513 9.60939L30.3482 15.5L24.0259 21.3906C22.4009 22.9141 20.8436 24.0736 19.354 24.8691C17.8645 25.6478 16.3072 26.0371 14.6822 26.0371C12.7863 26.0371 11.1106 25.6055 9.65476 24.7422C8.21596 23.8789 7.09036 22.6602 6.27786 21.0859C5.46536 19.4948 5.05906 17.6328 5.05906 15.5ZM36.772 15.5L43.0689 9.60939C44.7108 8.08589 46.2766 6.93489 47.7662 6.15619C49.2557 5.36069 50.813 4.96289 52.438 4.96289C54.3339 4.96289 56.0012 5.39449 57.44 6.25779C58.8957 7.12109 60.0298 8.33979 60.8423 9.91409C61.6548 11.4883 62.0611 13.3503 62.0611 15.5C62.0611 17.6328 61.6548 19.4948 60.8423 21.0859C60.0298 22.6602 58.8957 23.8789 57.44 24.7422C56.0012 25.6055 54.3339 26.0371 52.438 26.0371C50.813 26.0371 49.2557 25.6478 47.7662 24.8691C46.2766 24.0736 44.7193 22.9141 43.0943 21.3906L36.772 15.5Z" fill="black"/>
</svg>
