<svg width="74" height="51" viewBox="0 0 74 51" fill="none" xmlns="http://www.w3.org/2000/svg">
<path d="M37.17 50.2559C40.5554 50.2559 43.7377 49.6042 46.7169 48.3008C49.713 47.0143 52.3451 45.237 54.6134 42.9688C56.8985 40.6836 58.6928 38.0514 59.9962 35.0723C61.2996 32.0762 61.9512 28.8854 61.9512 25.5C61.9512 22.1146 61.2996 18.9323 59.9962 15.9531C58.6928 12.957 56.8985 10.3249 54.6134 8.05664C52.3451 5.77154 49.713 3.98574 46.7169 2.69924C43.7208 1.39584 40.53 0.744141 37.1446 0.744141C33.7592 0.744141 30.5769 1.38744 27.5977 2.67384C24.6186 3.96034 21.9864 5.74614 19.7012 8.03124C17.433 10.3164 15.6472 12.957 14.3438 15.9531C13.0574 18.9323 12.4141 22.1146 12.4141 25.5C12.4141 28.8854 13.0574 32.0762 14.3438 35.0723C15.6472 38.0514 17.433 40.6836 19.7012 42.9688C21.9864 45.237 24.6186 47.0143 27.5977 48.3008C30.5938 49.6042 33.7846 50.2559 37.17 50.2559ZM37.17 45.9395C34.3432 45.9395 31.6941 45.4147 29.2227 44.3652C26.7514 43.3158 24.5762 41.86 22.6973 39.998C20.8354 38.1191 19.3796 35.944 18.3302 33.4727C17.2807 31.0013 16.7559 28.3438 16.7559 25.5C16.7559 22.6562 17.2807 19.9987 18.3302 17.5273C19.3796 15.056 20.8354 12.8893 22.6973 11.0273C24.5593 9.14844 26.726 7.68424 29.1973 6.63484C31.6687 5.56844 34.3178 5.03524 37.1446 5.03524C39.9884 5.03524 42.6459 5.56844 45.1173 6.63484C47.5886 7.68424 49.7553 9.14844 51.6173 11.0273C53.4962 12.8893 54.9604 15.056 56.0098 17.5273C57.0762 19.9987 57.6179 22.6562 57.6348 25.5C57.6348 28.3268 57.1101 30.9759 56.0606 33.4473C55.0111 35.9186 53.547 38.0938 51.668 39.9727C49.7891 41.8516 47.614 43.3158 45.1427 44.3652C42.6713 45.4147 40.0138 45.9395 37.17 45.9395ZM0.937561 25.5C0.937561 29.5117 1.5554 33.3372 2.79107 36.9766C4.02675 40.6159 5.75331 43.9421 7.97078 46.9551C8.36008 47.4967 8.85098 47.793 9.44338 47.8438C10.0528 47.9115 10.6114 47.7422 11.1192 47.3359C11.5762 46.9466 11.8302 46.4727 11.8809 45.9141C11.9486 45.3555 11.7963 44.8223 11.4239 44.3145C9.49418 41.6908 7.98768 38.7793 6.90436 35.5801C5.82102 32.3809 5.27936 29.0208 5.27936 25.5C5.27936 21.9622 5.82102 18.6022 6.90436 15.4199C7.98768 12.2207 9.49418 9.29234 11.4239 6.63484C11.7963 6.14394 11.9571 5.61914 11.9063 5.06054C11.8555 4.50204 11.5932 4.02804 11.1192 3.63874C10.6114 3.23244 10.0528 3.06324 9.44338 3.13094C8.85098 3.19864 8.36008 3.49484 7.97078 4.01954C5.75331 7.03264 4.02675 10.3587 2.79107 13.998C1.5554 17.6374 0.937561 21.4714 0.937561 25.5ZM73.4024 25.5C73.4024 21.4714 72.7846 17.6374 71.5489 13.998C70.3132 10.3587 68.5867 7.03264 66.3692 4.01954C65.9799 3.49484 65.4805 3.19864 64.8712 3.13094C64.2787 3.06324 63.7286 3.23244 63.2208 3.63874C62.7468 4.02804 62.4845 4.50204 62.4337 5.06054C62.3998 5.61914 62.5606 6.14394 62.9161 6.63484C64.8627 9.29234 66.3692 12.2207 67.4356 15.4199C68.519 18.6022 69.0606 21.9622 69.0606 25.5C69.0606 29.0208 68.519 32.3809 67.4356 35.5801C66.3692 38.7793 64.8627 41.6908 62.9161 44.3145C62.5606 44.8223 62.4083 45.3555 62.4591 45.9141C62.5098 46.4727 62.7638 46.9466 63.2208 47.3359C63.7286 47.7422 64.2787 47.9115 64.8712 47.8438C65.4805 47.793 65.9799 47.4967 66.3692 46.9551C68.5867 43.9421 70.3132 40.6159 71.5489 36.9766C72.7846 33.3372 73.4024 29.5117 73.4024 25.5ZM26.5567 27.125C26.5567 27.4297 26.6667 27.6836 26.8868 27.8867C27.1068 28.0729 27.3692 28.166 27.6739 28.166H35.8497L31.4825 39.9219C31.2963 40.4297 31.3048 40.8444 31.5079 41.166C31.7279 41.4876 32.0411 41.6569 32.4473 41.6738C32.8536 41.6908 33.226 41.4961 33.5645 41.0898L46.8184 24.459C47.0893 24.1374 47.2247 23.8242 47.2247 23.5195C47.2247 23.1979 47.1147 22.944 46.8946 22.7578C46.6746 22.5547 46.4122 22.4531 46.1075 22.4531H37.9063L42.2989 10.6973C42.4851 10.1725 42.4682 9.74934 42.2481 9.42774C42.0281 9.10614 41.7149 8.94534 41.3087 8.94534C40.9193 8.92844 40.5554 9.13154 40.2169 9.55474L26.963 26.1855C26.6921 26.4902 26.5567 26.8034 26.5567 27.125Z" fill="black"/>
</svg>
